HIERARCHY
ROOT Spine
{
    OFFSET 0.0 0.0 -0.0
    CHANNELS 6 Xposition Yposition Zposition Zrotation Xrotation Yrotation
    JOINT ShoulderCenter
    {
        OFFSET 0.0 33.018985748291016 0.0
        CHANNELS 3 Zrotation Xrotation Yrotation
        JOINT LeftShoulder
        {
            OFFSET 18.641685485839844 0.0 0.0
            CHANNELS 3 Zrotation Xrotation Yrotation
            JOINT LeftElbow
            {
                OFFSET 28.85647201538086 0.0 0.0
                CHANNELS 3 Zrotation Xrotation Yrotation
                JOINT LeftHand
                {
                    OFFSET 32.28925704956055 0.0 0.0
                    CHANNELS 3 Zrotation Xrotation Yrotation
                    End Site
                    {
                        OFFSET 12.915704727172852 0.0 0.0
                    }
                }
            }
        }
        JOINT RightShoulder
        {
            OFFSET -18.641685485839844 0.0 0.0
            CHANNELS 3 Zrotation Xrotation Yrotation
            JOINT RightElbow
            {
                OFFSET -28.85647201538086 0.0 0.0
                CHANNELS 3 Zrotation Xrotation Yrotation
                JOINT RightHand
                {
                    OFFSET -32.28925704956055 0.0 0.0
                    CHANNELS 3 Zrotation Xrotation Yrotation
                    End Site
                    {
                        OFFSET -12.915704727172852 0.0 0.0
                    }
                }
            }
        }
        End Site
        {
            OFFSET 0.0 13.207594871520996 0.0
        }
    }
    JOINT LeftHip
    {
        OFFSET 15.558140258578364 -15.558140258578364 0.0
        CHANNELS 3 Zrotation Xrotation Yrotation
        JOINT LeftKnee
        {
            OFFSET 0.0 -41.181251525878906 0.0
            CHANNELS 3 Zrotation Xrotation Yrotation
            JOINT LeftFoot
            {
                OFFSET 0.0 -42.514793395996094 0.0
                CHANNELS 3 Zrotation Xrotation Yrotation
                End Site
                {
                    OFFSET 0.0 0.0 17.005916595458984
                }
            }
        }
    }
    JOINT RightHip
    {
        OFFSET -15.558140258578364 -15.558140258578364 0.0
        CHANNELS 3 Zrotation Xrotation Yrotation
        JOINT RightKnee
        {
            OFFSET 0.0 -41.181251525878906 0.0
            CHANNELS 3 Zrotation Xrotation Yrotation
            JOINT RightFoot
            {
                OFFSET 0.0 -42.514793395996094 0.0
                CHANNELS 3 Zrotation Xrotation Yrotation
                End Site
                {
                    OFFSET 0.0 0.0 17.005916595458984
                }
            }
        }
    }
}
MOTION
Frames: 12
Frame Time: 0.03333333333333333
-116.19999694824219 47.099998474121094 -58.89999771118164 -58.23349890944388 2.944435801486708 85.77580210460286 2.5563879994934085e-06 -4.87114007304706e-07 -1.743623200198214 125.17914959935206 -1.4050276832763862 -122.61487226707642 -2.904642927746395e-06 -1.174095848702693e-06 65.79677359484793 -3.578124016646456e-15 -6.361109362927033e-15 3.180554681463516e-15 -110.15699828569673 1.8567304274411396 88.76323949486884 2.1749141128406316e-06 1.8887844468419157e-06 -70.46047534052555 -2.2860236773019026e-15 0.0 0.0 9.452460973589217 -67.91051056155762 71.90571199067995 7.963075567084562 5.461530633339813 -12.975169830825067 7.454425034680117e-17 -1.6669970537398658e-33 -2.562555668497263e-15 148.63757331773368 -77.76981940717603 90.35924065096546 -48.385423198445885 27.482010295645203 57.04946521235793 -1.5902773407317582e-15 -6.207055731633035e-32 4.472655020808069e-15
-117.49999237060547 45.29999923706055 -59.39999771118164 -57.51546410584198 4.338006786871253 85.34006443585672 1.7946435565274518e-06 6.055647530061714e-07 -1.4768925360432459 123.72468234173506 -0.7099394516236908 -121.71318276781254 -4.348392714088696e-06 5.731450596068726e-06 66.27236376437007 7.156248033292914e-15 -3.975693351829397e-16 2.4828222926532145e-32 -109.9685165505487 1.699064894771378 85.79252800468167 -2.0255824163909844e-06 -6.966507861915495e-07 -68.45216970431117 1.5902773407317584e-15 -2.2069531490250793e-32 -1.5902773407317584e-15 6.538352513689778 -67.41533546416467 68.61328797189705 6.297703788502862 4.81401560980939 -10.777994342340682 1.7393658414253607e-16 1.2424041724466869e-17 3.1933669744918732e-15 154.1314561319906 -76.04517098647001 95.70280070574293 -52.608454098905305 27.520338804976063 61.681410408581186 0.0 0.0 -2.2860236773019026e-15
-118.79999542236328 43.5 -59.89999771118164 -56.79342968718245 4.869352174111881 85.35522659841007 -2.758567654943249e-06 -2.240710298685282e-06 -2.025579008671201 123.1296507776839 0.6578474448039876 -121.0441420199974 -3.094569627661263e-06 5.429527438515324e-06 66.68711395562936 -3.1805546814635176e-15 6.758678698109974e-15 1.8759101766713175e-31 -109.07339633648282 1.0182182466670515 82.7992039715517 -1.0306001710710885e-06 -1.2050267514467881e-06 -65.78036549200245 7.95138670365879e-16 0.0 0.0 2.842212665147028 -66.21697749901685 61.436565077630256 5.619916306576505 3.333758410548067 -7.481183771558991 3.4787316828507215e-16 1.816991639843707e-32 5.985282100761911e-15 159.51329589707797 -74.2235815764918 99.969414903072 -56.32174109368522 27.91466821432989 65.68255435726823 7.951386703658792e-16 4.4828735839571924e-32 6.4605016967227685e-15
-120.0999984741211 41.70000076293945 -60.5 -55.63475999630936 4.856950005289475 84.26752831647653 -1.684274725649495e-06 5.678494242482285e-07 -0.5136358506907209 122.85977606774294 0.621252731104562 -120.27262901003373 3.851243180747431e-06 -6.863263849284037e-07 67.57054715882306 4.770832022195274e-15 -6.361109362927033e-15 2.648343778830095e-31 -110.12381869966812 3.21347836451335 81.51657379231128 1.8030580253341452e-06 3.9563335744596684e-06 -63.826158131724426 3.975693351829396e-16 5.517382872562698e-33 1.5902773407317584e-15 2.5558758492597824 -64.6014773604756 56.81093880348726 5.403387179763401 2.8871147645862143 -6.628776456747277 -4.969616689786745e-17 4.310455369189608e-35 -9.93923337957349e-17 160.34727089634518 -72.58748983176287 99.41603589128506 -60.19636401395408 25.639143482907855 67.96194818894294 2.3854160110976376e-15 -9.931289170612858e-32 -4.770832022195275e-15
-121.4000015258789 40.20000076293945 -60.70000076293945 -54.48248350264981 3.8084218822785947 82.80549331570025 -2.1235119436736994e-06 1.4233335455727006e-06 4.328216216489139 124.30410567057334 -1.4157843367825365 -116.90960213114583 3.123687064227664e-06 -6.27052591014641e-06 67.00084393688827 5.565970692561154e-15 -6.3611093629270335e-15 3.089734408635111e-31 -108.51592423700808 6.005252518351505 80.78201544643883 1.713771337687828e-06 3.6392898628611254e-06 -61.0101271613327 1.5902773407317584e-15 -6.3611093629270335e-15 1.5902773407317584e-15 6.876768585210871 -64.19033007039998 60.07554302431931 5.363640646355551 5.251956812884538 -12.041522067230137 -4.969616689786745e-17 -1.987846675914698e-16 -1.419446767020339e-15 160.26277117876205 -71.25586276895557 96.99940341330742 -63.16715233191471 25.934711880122574 71.65082441660988 -7.951386703658794e-16 -7.951386703658794e-16 9.342879376799082e-15
-122.5999984741211 38.5 -61.19999694824219 -53.37301731502009 4.32965615413267 82.38804549742565 -5.991584165280554e-07 2.3778179722640808e-07 4.16670145094465 122.9149891427985 -0.8223364893163235 -115.83689251459593 4.072551278355872e-06 -1.3319081633272518e-06 66.69881100658233 1.5902773407317584e-15 0.0 0.0 -107.75634104515787 5.484126342367044 78.10519443979074 2.354200560859871e-06 3.3070200875288403e-06 -57.34941435740431 -8.827812596100317e-32 -6.3611093629270335e-15 -1.5902773407317584e-15 4.559278711784754 -63.49989372180361 56.38352189890691 5.662899040199841 5.58833796341489 -13.207716499294108 0.0 0.0 -2.919649805249713e-15 162.61715079166018 -69.436612385343 99.61378557620914 -66.60469639198763 29.304370770748292 76.3329264976009 1.5902773407317584e-15 -1.9310840053969444e-32 -1.3914926731402886e-15
-123.80000305175781 36.79999923706055 -62.0 -52.26205823780974 5.021603639250961 82.39283084674419 -2.7877805802940395e-06 -1.5805857849565317e-06 4.385833029299615 123.58323434409326 -0.5906786535109682 -115.06939603084125 2.39589535437773e-06 1.3299767425731816e-06 67.54434101816831 -6.361109362927033e-15 7.951386703658791e-16 4.4139062980501586e-32 -108.63719510108446 7.204516528563337 76.68162835310466 -4.278854326507737e-06 -1.261592968792397e-06 -54.42768964723201 -8.827812596100317e-32 6.3611093629270335e-15 1.5902773407317584e-15 2.9982670539668623 -64.60685488980998 56.83674906112128 7.473760212294884 7.496864981271251 -17.358628676806216 1.987846675914698e-16 3.975693351829396e-16 -6.460501696722769e-16 169.53210442797175 -67.35578251632364 105.27347209674993 -70.76586296190382 28.96656283286742 81.54324276939087 -7.951386703658792e-16 1.5902773407317582e-15 4.07508568562513e-15
-125.39999389648438 35.70000076293945 -62.19999694824219 -50.77157773383421 3.6359029678040646 83.98810194505265 1.244059648311904e-06 2.7012350390015575e-06 2.096142389828277 123.51280209875583 -0.23120433031915166 -113.7501799635682 1.7801422328677846e-06 -1.758537461329192e-07 65.59040577394097 1.5902773407317582e-15 -6.361109362927032e-15 3.180554681463516e-15 -108.32141213488315 7.827857442367918 77.2380839643968 -1.5947458209714302e-07 7.266248954902113e-07 -54.03516826362473 0.0 0.0 0.0 0.7304904204003237 -65.96302977414415 54.15633758324426 10.417077731556939 10.396275472736257 -23.71088393087549 0.0 0.0 -2.348143885924237e-15 177.12705282651706 -64.19857482209365 109.06207542547456 -76.68552639487697 27.28382861756997 84.79659392760229 0.0 0.0 -2.1866313435061676e-15
-126.19999694824219 35.10000228881836 -62.599998474121094 -50.03885715117065 3.6402998621017506 83.23948154527876 6.445674817758544e-07 -9.024387337934409e-07 3.175875677261611 122.55255673313421 -0.769345240169504 -111.97266448020018 2.381755894283706e-06 -2.0712142963261915e-06 64.06402636416104 3.1805546814635168e-15 6.3611093629270335e-15 -1.5902773407317584e-15 -109.38747967007973 9.666361848940294 78.75077690750979 -2.1405010233718549e-07 5.950233623976072e-07 -54.855570273669414 7.951386703658791e-16 0.0 0.0 1.474868876304485 -66.26186468953453 55.487272736143545 11.643427989268936 10.734951343145958 -24.917312737590574 0.0 0.0 -5.528698567387753e-15 176.69088451592498 -62.88065873225942 108.55221266183683 -78.21723494051777 27.566373820454558 85.60749372608727 2.3854160110976376e-15 -7.655368735680744e-32 -3.677516350442191e-15
-127.10000610351562 34.79999923706055 -63.099998474121094 -49.4175097566128 3.463061317601312 84.68762696146761 1.030773288601435e-06 3.5499183609882357e-06 1.4270762369103946 123.82328518544537 -0.64713456577198 -111.41962960721685 -9.480808755282259e-07 1.5987119141528766e-06 63.28248532688247 6.3611093629270335e-15 -1.7655625192200634e-31 -3.1805546814635168e-15 -111.7722275140451 10.822118180943502 83.2906328723016 -2.4808559807569216e-06 -6.593183520020384e-07 -59.46659291980541 -7.951386703658791e-16 6.361109362927033e-15 4.4139062980501586e-32 -2.0561828591580795 -65.76743851067411 51.45314059697712 10.762109054678163 11.28455883319588 -25.025942650245067 -4.913919120876153e-33 -3.975693351829396e-16 -1.4163407565892223e-15 -178.3391715128157 -61.33549721095082 113.46461577328019 -79.9030424746222 27.935186492219607 86.60138870117834 3.975693351829397e-16 -1.5902773407317584e-15 7.951386703658792e-15
-127.60000610351562 34.900001525878906 -63.0 -49.53003749372025 2.4200911632615334 82.96549621149896 -5.245106643665003e-07 -1.261359006150506e-06 2.1683482271610552 124.14092542618215 0.5069586208810809 -110.14617536865339 -3.00591113444129e-06 3.5565803613961257e-06 61.2119172942305 -5.517382872562698e-33 3.9756933518293955e-16 1.5902773407317582e-15 -111.29475347596744 8.804834469659228 87.24486348356216 1.509520304852095e-06 -2.430530925565429e-09 -64.24437629476333 -1.5902773407317584e-15 0.0 0.0 3.015817718951515 -65.33182091456293 54.97846091291138 9.56219151818487 10.342026727709673 -22.244915928685714 -3.975693351829396e-16 -5.431173765178906e-33 1.5654292572828246e-15 -179.5708623399977 -61.1082787425577 110.13156553768854 -81.04955420348244 27.338883371685746 87.77804009762599 -7.951386703658792e-16 3.975693351829397e-16 -7.156248033292914e-15
-128.10000610351562 35.29999923706055 -62.80000305175781 -49.286102537561554 1.3839191688707324 83.72752913754839 3.260148608996222e-06 2.8828765230162305e-06 1.8022467686646586 126.76941176657168 0.118069744535003 -108.97594678793175 -1.031274634054041e-06 4.817663226113741e-07 59.648791719322475 3.1805546814635164e-15 4.4139062980501586e-32 1.5902773407317582e-15 -111.17986260084669 7.683001667361394 92.84795653022393 6.80426284878791e-06 7.403316230392368e-06 -68.51437375124924 0.0 0.0 0.0 2.897822170208817 -64.70320396780342 53.59994275913381 8.733848330775015 10.061716192307987 -20.681524509953967 0.0 0.0 1.8884543421189626e-15 -177.13626192962076 -61.32037786218422 111.16710969063627 -84.03523132140258 25.52733355403838 94.31979131598207 7.951386703658792e-16 -7.951386703658792e-16 -1.2921003393445538e-15
